<svg xmlns="http://www.w3.org/2000/svg" xmlns:xlink="http://www.w3.org/1999/xlink" width="500" zoomAndPan="magnify" viewBox="0 0 375 374.999991" height="500" preserveAspectRatio="xMidYMid meet" version="1.0"><defs><clipPath id="c5229dfec5"><path d="M 108 114 L 220 114 L 220 193 L 108 193 Z M 108 114 " clip-rule="nonzero"/></clipPath><clipPath id="2b0b564f06"><path d="M 108.644531 169.5625 L 206.738281 114.476562 L 219.835938 137.804688 L 121.746094 192.886719 Z M 108.644531 169.5625 " clip-rule="nonzero"/></clipPath><clipPath id="7d9c962e4d"><path d="M 136 123 L 248 123 L 248 202 L 136 202 Z M 136 123 " clip-rule="nonzero"/></clipPath><clipPath id="6ae568c47b"><path d="M 136.167969 178.652344 L 234.257812 123.570312 L 247.355469 146.894531 L 149.265625 201.980469 Z M 136.167969 178.652344 " clip-rule="nonzero"/></clipPath><clipPath id="bb3af91221"><path d="M 164 129 L 276 129 L 276 208 L 164 208 Z M 164 129 " clip-rule="nonzero"/></clipPath><clipPath id="7406a9941d"><path d="M 164.242188 184.191406 L 262.332031 129.109375 L 275.429688 152.433594 L 177.339844 207.519531 Z M 164.242188 184.191406 " clip-rule="nonzero"/></clipPath><clipPath id="d5a5e8261e"><path d="M 187 151 L 263 151 L 263 213 L 187 213 Z M 187 151 " clip-rule="nonzero"/></clipPath><clipPath id="41e729c751"><path d="M 187.5 184.757812 L 247.210938 151.222656 L 262.992188 179.324219 L 203.28125 212.859375 Z M 187.5 184.757812 " clip-rule="nonzero"/></clipPath><clipPath id="b9639b727a"><path d="M 203 165 L 279 165 L 279 228 L 203 228 Z M 203 165 " clip-rule="nonzero"/></clipPath><clipPath id="33844ab5a1"><path d="M 203.335938 199.257812 L 263.046875 165.726562 L 278.828125 193.828125 L 219.117188 227.359375 Z M 203.335938 199.257812 " clip-rule="nonzero"/></clipPath></defs><path stroke-linecap="butt" transform="matrix(0.75, 0, 0, 0.75, 76.397512, 37.499998)" fill="none" stroke-linejoin="miter" d="M 0.00123362 18.500004 L 307.631462 18.500004 " stroke="#495b52" stroke-width="37" stroke-opacity="1" stroke-miterlimit="4"/><path stroke-linecap="butt" transform="matrix(0, -0.75, 0.75, 0, 279.369361, 337.498103)" fill="none" stroke-linejoin="miter" d="M -0.00252875 18.502312 L 391.408955 18.502312 " stroke="#495b52" stroke-width="37" stroke-opacity="1" stroke-miterlimit="4"/><path stroke-linecap="butt" transform="matrix(0.75, 0, 0, 0.75, 76.397512, 309.74998)" fill="none" stroke-linejoin="miter" d="M 0.00123362 18.500028 L 307.631462 18.500028 " stroke="#495b52" stroke-width="37" stroke-opacity="1" stroke-miterlimit="4"/><path stroke-linecap="butt" transform="matrix(0, -0.75, 0.75, 0, 76.391997, 181.138493)" fill="none" stroke-linejoin="miter" d="M 0.00236554 18.498172 L 182.934669 18.498172 " stroke="#495b52" stroke-width="37" stroke-opacity="1" stroke-miterlimit="4"/><path stroke-linecap="butt" transform="matrix(0.682143, -0.311738, 0.311738, 0.682143, 68.030969, 175.685422)" fill="none" stroke-linejoin="miter" d="M -0.000660069 7.996849 L 212.041026 8.002309 " stroke="#a04c46" stroke-width="16" stroke-opacity="1" stroke-miterlimit="4"/><path stroke-linecap="butt" transform="matrix(0, -0.75, 0.75, 0, 68.14188, 242.445512)" fill="none" stroke-linejoin="miter" d="M 0.000266106 5.498327 L 89.015897 5.498327 " stroke="#a04c46" stroke-width="11" stroke-opacity="1" stroke-miterlimit="4"/><path stroke-linecap="butt" transform="matrix(-0.715826, -0.223815, 0.223815, -0.715826, 223.507607, 231.951635)" fill="none" stroke-linejoin="miter" d="M -0.000105454 6.999259 L 211.288588 6.99868 " stroke="#a04c46" stroke-width="14" stroke-opacity="1" stroke-miterlimit="4"/><path stroke-linecap="butt" transform="matrix(-0.716068, -0.22304, 0.22304, -0.716068, 232.738525, 226.341211)" fill="none" stroke-linejoin="miter" d="M -0.000997994 7.001165 L 209.328506 6.999214 " stroke="#a04c46" stroke-width="14" stroke-opacity="1" stroke-miterlimit="4"/><path stroke-linecap="butt" transform="matrix(-0.716068, -0.22304, 0.22304, -0.716068, 231.177237, 226.341211)" fill="none" stroke-linejoin="miter" d="M 0.000544006 7.000685 L 209.330048 6.998734 " stroke="#a04c46" stroke-width="14" stroke-opacity="1" stroke-miterlimit="4"/><path stroke-linecap="butt" transform="matrix(-0.716488, -0.221687, 0.221687, -0.716488, 243.27368, 220.082549)" fill="none" stroke-linejoin="miter" d="M 0.00190817 7.000427 L 204.973889 7.002806 " stroke="#a04c46" stroke-width="14" stroke-opacity="1" stroke-miterlimit="4"/><g clip-path="url(#c5229dfec5)"><g clip-path="url(#2b0b564f06)"><path fill="#a04c46" d="M 108.644531 169.5625 L 206.773438 114.457031 L 219.871094 137.78125 L 121.746094 192.886719 Z M 108.644531 169.5625 " fill-opacity="1" fill-rule="nonzero"/></g></g><g clip-path="url(#7d9c962e4d)"><g clip-path="url(#6ae568c47b)"><path fill="#a04c46" d="M 136.167969 178.652344 L 234.292969 123.546875 L 247.394531 146.871094 L 149.265625 201.980469 Z M 136.167969 178.652344 " fill-opacity="1" fill-rule="nonzero"/></g></g><g clip-path="url(#bb3af91221)"><g clip-path="url(#7406a9941d)"><path fill="#a04c46" d="M 164.242188 184.191406 L 262.367188 129.085938 L 275.46875 152.410156 L 177.339844 207.519531 Z M 164.242188 184.191406 " fill-opacity="1" fill-rule="nonzero"/></g></g><g clip-path="url(#d5a5e8261e)"><g clip-path="url(#41e729c751)"><path fill="#a04c46" d="M 187.5 184.757812 L 247.214844 151.222656 L 262.996094 179.324219 L 203.28125 212.859375 Z M 187.5 184.757812 " fill-opacity="1" fill-rule="nonzero"/></g></g><g clip-path="url(#b9639b727a)"><g clip-path="url(#33844ab5a1)"><path fill="#a04c46" d="M 203.335938 199.257812 L 263.050781 165.722656 L 278.832031 193.824219 L 219.117188 227.359375 Z M 203.335938 199.257812 " fill-opacity="1" fill-rule="nonzero"/></g></g><path stroke-linecap="butt" transform="matrix(0.722127, 0.202563, -0.202563, 0.722127, 212.256787, 109.734984)" fill="none" stroke-linejoin="miter" d="M 0.0000357674 2.000611 L 92.954165 1.999251 " stroke="#a04c46" stroke-width="4" stroke-opacity="1" stroke-miterlimit="4"/><path stroke-linecap="butt" transform="matrix(0.721032, 0.20643, -0.20643, 0.721032, 213.171202, 110.716135)" fill="none" stroke-linejoin="miter" d="M -0.00285195 20.499168 L 82.71255 20.498156 " stroke="#a04c46" stroke-width="41" stroke-opacity="1" stroke-miterlimit="4"/><path stroke-linecap="butt" transform="matrix(0.000841012, -0.749999, 0.749999, 0.000841012, 244.175979, 205.772857)" fill="none" stroke-linejoin="miter" d="M -0.000464383 23.499754 L 103.645444 23.498114 " stroke="#a04c46" stroke-width="47" stroke-opacity="1" stroke-miterlimit="4"/><path stroke-linecap="butt" transform="matrix(-0.679098, 0.318316, -0.318316, -0.679098, 279.377535, 205.544636)" fill="none" stroke-linejoin="miter" d="M -0.00154531 23.499107 L 82.885387 23.501231 " stroke="#a04c46" stroke-width="47" stroke-opacity="1" stroke-miterlimit="4"/><path stroke-linecap="butt" transform="matrix(-0.682387, 0.311204, -0.311204, -0.682387, 279.337779, 271.543957)" fill="none" stroke-linejoin="miter" d="M 0.0004259 5.502783 L 86.612481 5.498372 " stroke="#a04c46" stroke-width="11" stroke-opacity="1" stroke-miterlimit="4"/><path stroke-linecap="butt" transform="matrix(-0.682011, 0.312028, -0.312028, -0.682011, 279.250621, 256.076935)" fill="none" stroke-linejoin="miter" d="M -0.00175509 5.501628 L 84.457845 5.499109 " stroke="#a04c46" stroke-width="11" stroke-opacity="1" stroke-miterlimit="4"/><path stroke-linecap="butt" transform="matrix(-0.682387, 0.311204, -0.311204, -0.682387, 278.141441, 264.193929)" fill="none" stroke-linejoin="miter" d="M 0.000494763 5.499339 L 86.610389 5.499666 " stroke="#a04c46" stroke-width="11" stroke-opacity="1" stroke-miterlimit="4"/><path stroke-linecap="butt" transform="matrix(0, 0.75, -0.75, 0, 279.399685, 250.678342)" fill="none" stroke-linejoin="miter" d="M 0.00179408 5.501663 L 27.757004 5.501663 " stroke="#a04c46" stroke-width="11" stroke-opacity="1" stroke-miterlimit="4"/><path stroke-linecap="butt" transform="matrix(-0.716144, -0.222795, 0.222795, -0.716144, 223.341494, 232.112166)" fill="none" stroke-linejoin="miter" d="M 0.00117653 5.501726 L 208.495278 5.498734 " stroke="#a04c46" stroke-width="11" stroke-opacity="1" stroke-miterlimit="4"/><path stroke-linecap="butt" transform="matrix(0.75, 0, 0, 0.75, 127.499996, 185.999988)" fill="none" stroke-linejoin="miter" d="M 0.00000516333 2.000016 L 160.000016 2.000016 " stroke="#a04c46" stroke-width="4" stroke-opacity="1" stroke-miterlimit="4"/><path stroke-linecap="butt" transform="matrix(0.75, 0, 0, 0.75, 275.764616, 249.174797)" fill="none" stroke-linejoin="miter" d="M 0.00134534 2.001312 L 4.730512 2.001312 " stroke="#a04c46" stroke-width="4" stroke-opacity="1" stroke-miterlimit="4"/><path stroke-linecap="butt" transform="matrix(0.681977, -0.312101, 0.312101, 0.681977, 275.561031, 248.794642)" fill="none" stroke-linejoin="miter" d="M 0.00141859 0.502245 L 4.732581 0.502304 " stroke="#a04c46" stroke-width="1" stroke-opacity="1" stroke-miterlimit="4"/><path stroke-linecap="butt" transform="matrix(0.681977, -0.312101, 0.312101, 0.681977, 275.857429, 249.135629)" fill="none" stroke-linejoin="miter" d="M -0.00210411 0.498956 L 4.733795 0.501183 " stroke="#a04c46" stroke-width="1" stroke-opacity="1" stroke-miterlimit="4"/><path stroke-linecap="butt" transform="matrix(0.681977, -0.312101, 0.312101, 0.681977, 276.094438, 249.533187)" fill="none" stroke-linejoin="miter" d="M -0.00105056 0.500728 L 4.730112 0.500788 " stroke="#a04c46" stroke-width="1" stroke-opacity="1" stroke-miterlimit="4"/><path stroke-linecap="butt" transform="matrix(0.681977, -0.312101, 0.312101, 0.681977, 277.864556, 247.687894)" fill="none" stroke-linejoin="miter" d="M -0.000449894 0.497538 L 2.365132 0.497567 " stroke="#a04c46" stroke-width="1" stroke-opacity="1" stroke-miterlimit="4"/><path stroke-linecap="butt" transform="matrix(0.75, 0, 0, 0.75, 139.499995, 197.999987)" fill="none" stroke-linejoin="miter" d="M 0.000006214 2.000017 L 160.000017 2.000017 " stroke="#a04c46" stroke-width="4" stroke-opacity="1" stroke-miterlimit="4"/><path stroke-linecap="butt" transform="matrix(0.000000001309, -0.75, 0.75, 0.000000001309, 277.364957, 251.057328)" fill="none" stroke-linejoin="miter" d="M -0.00168725 1.497765 L 4.732688 1.497765 " stroke="#a04c46" stroke-width="3" stroke-opacity="1" stroke-miterlimit="4"/><path stroke-linecap="butt" transform="matrix(-0.723831, -0.196388, 0.196388, -0.723831, 278.745982, 131.158775)" fill="none" stroke-linejoin="miter" d="M -0.00234213 2.000876 L 16.818007 1.997384 " stroke="#a04c46" stroke-width="4" stroke-opacity="1" stroke-miterlimit="4"/><path stroke-linecap="butt" transform="matrix(0.000000001309, -0.75, 0.75, 0.000000001309, 76.395667, 337.498161)" fill="none" stroke-linejoin="miter" d="M -0.00245192 18.498487 L 132.23714 18.498487 " stroke="#495b52" stroke-width="37" stroke-opacity="1" stroke-miterlimit="4"/><path stroke-linecap="butt" transform="matrix(-0.703599, -0.259708, 0.259708, -0.703599, 220.452352, 298.450644)" fill="none" stroke-linejoin="miter" d="M 0.00175953 5.497671 L 216.63381 5.498435 " stroke="#a04c46" stroke-width="11" stroke-opacity="1" stroke-miterlimit="4"/><path stroke-linecap="butt" transform="matrix(-0.704064, -0.258444, 0.258444, -0.704064, 223.072915, 294.451416)" fill="none" stroke-linejoin="miter" d="M -0.00267853 11.499859 L 219.527331 11.502663 " stroke="#a04c46" stroke-width="23" stroke-opacity="1" stroke-miterlimit="4"/></svg>